<?xml version="1.0" standalone="no"?>
<!DOCTYPE svg PUBLIC "-//W3C//DTD SVG 1.1//EN" "http://www.w3.org/Graphics/SVG/1.1/DTD/svg11.dtd">
<svg xmlns="http://www.w3.org/2000/svg">
<defs >
<font id="Jost" horiz-adv-x="546" ><font-face
    font-family="Jost Light"
    units-per-em="1000"
    panose-1="0 0 0 0 0 0 0 0 0 0"
    ascent="1070"
    descent="-375"
    alphabetic="0" />
<glyph unicode=" " horiz-adv-x="300" />
<glyph unicode="!" horiz-adv-x="275" d="M198 700L127 201H166L263 700H198ZM79 24Q79 8 89 -2T116 -13Q130 -13 142 -3T154 24Q154 40 142 51T116 62Q100 62 90 51T79 24Z" />
<glyph unicode="&quot;" horiz-adv-x="427" d="M220 700L127 409H163L283 700H220ZM395 700L301 409H337L457 700H395Z" />
<glyph unicode="#" horiz-adv-x="573" d="M122 447L253 446H262H455H464L589 447L597 489H129L122 447ZM43 217H511L518 259H393H378H183H173H51L43 217ZM539 700L445 472L442 460L355 246L350 234L254 0H303L589 700H539ZM335 700L52 0H99L195 233L199 244L289
463L293 474L385 700H335Z" />
<glyph unicode="$" horiz-adv-x="562" d="M356 818L335 682H381L404 818H356ZM236 28L213 -111H261L283 28H236ZM488 528L536 555Q527 594 505 629T447 686T359 709Q308 709 263 688T187 630T150 545Q144 504 155 473T188 418T238 377T296 346Q332 331 365 310T417
257T429 180Q423 141 402 110T348 62T268 44Q218 44 187 68T137 132T109 214L59 188Q71 136 96 91T161 19T260 -8Q324 -9 371 16T448 85T486 184Q490 223 480 254T450 311T403 354T346 385Q318 397 291 410T244 442T212 484T206 540Q211 575 232 601T285 642T355
656Q396 655 422 637T463 589T488 528Z" />
<glyph unicode="%" horiz-adv-x="709" d="M101 555Q95 514 107 479T151 421T226 399Q272 399 309 420T370 476T401 554Q407 594 394 629T351 687T276 710Q230 710 193 689T132 632T101 555ZM147 554Q152 583 169 609T213 651T272 667Q303 666 323 650T351 608T355
554Q350 525 333 499T290 457T231 442Q198 442 178 458T150 500T147 554ZM374 147Q368 106 381 71T424 13T500 -9Q545 -9 582 12T643 68T674 146Q680 186 667 221T624 279T549 302Q503 302 466 281T405 224T374 147ZM420 146Q425 175 442 201T485 243T545 259Q577
258 596 242T624 200T628 146Q623 117 606 91T563 49T504 34Q470 34 451 50T424 92T420 146ZM642 700L83 0H133L694 700H642Z" />
<glyph unicode="&amp;" horiz-adv-x="655" d="M246 401L527 0H585L288 429Q274 450 261 470T240 514T236 564Q239 592 256 615T298 651T358 664Q390 663 409 649T436 611T441 562Q435 531 413 505T359 456T291 413Q265 398 235 383T174 349T117 307T72 252T49
179Q41 123 64 81T133 15T233 -9Q302 -10 359 17T468 90T564 188T652 290L615 315Q576 271 535 222T448 131T350 63T240 39Q197 39 164 57T114 107T104 182Q109 225 133 255T190 307T258 347T324 382Q356 400 384 420T436 461T473 507T493 562Q499 600 485 634T440
689T363 711Q316 711 277 692T213 640T182 565Q178 531 188 502T214 448T246 401Z" />
<glyph unicode="&apos;" horiz-adv-x="252" d="M220 700L127 409H163L283 700H220Z" />
<glyph unicode="(" horiz-adv-x="273" d="M302 779Q227 669 181 545T114 290Q96 167 104 43T152 -200H197Q162 -80 158 43T172 290Q192 419 236 542T348 779H302Z" />
<glyph unicode=")" horiz-adv-x="273" d="M28 -199Q101 -89 147 35T215 290Q233 413 226 537T177 781H131Q166 660 170 537T157 290Q136 161 92 38T-19 -199H28Z" />
<glyph unicode="*" horiz-adv-x="574" d="M527 593L345 530L350 498L533 548L527 593ZM449 375L361 523L333 504L409 348L449 375ZM232 349L359 502L336 522L198 378L232 349ZM173 549L341 498L357 529L195 592L173 549ZM358 700L332 514H363L403 700H358Z" />
<glyph unicode="+" horiz-adv-x="571" d="M75 230L517 229L527 281H84L75 230ZM314 492L233 19L286 18L369 492H314Z" />
<glyph unicode="," horiz-adv-x="285" d="M145 103L8 -152L43 -165L194 82L145 103Z" />
<glyph unicode="-" horiz-adv-x="203" d="M16 227H211L220 275H25L16 227Z" />
<glyph unicode="." horiz-adv-x="275" d="M79 24Q79 8 89 -2T115 -12Q130 -12 141 -2T152 24Q152 40 141 51T115 62Q100 62 90 51T79 24Z" />
<glyph unicode="/" horiz-adv-x="483" d="M510 700L-38 -149H14L564 700H510Z" />
<glyph unicode="0" horiz-adv-x="562" d="M131 350Q139 405 158 459T207 559T277 631T368 658Q408 657 434 638T475 586T496 514T502 432T497 350Q490 295 471 241T421 141T350 69T260 43Q220 43 194 62T153 113T131 186T125 268T131 350ZM77 350Q71 303 72 252T83
154T114 71T170 13T255 -9Q317 -10 367 21T455 103T518 219T551 350Q557 397 556 448T545 546T514 629T457 687T373 710Q312 710 262 679T173 597T110 481T77 350Z" />
<glyph unicode="1" horiz-adv-x="420" d="M157 599L321 640L212 0H266L388 709L168 657L157 599Z" />
<glyph unicode="2" horiz-adv-x="530" d="M4 0H469L478 52L126 53L413 315Q456 355 491 404T535 513Q541 548 532 583T501 647T443 693T360 711Q290 711 238 677T154 585T110 461H163Q173 513 198 559T262 632T355 659Q390 658 415 645T456 611T477 564T479 511Q473
477 458 448T420 394T374 345L4 0Z" />
<glyph unicode="3" horiz-adv-x="531" d="M281 353Q324 354 365 366T440 400T496 454T526 528Q533 574 516 616T460 683T367 710Q310 710 266 686T192 621T153 527H205Q214 563 235 593T289 642T364 660Q405 659 430 640T465 591T471 526Q465 495 448 471T406
428T349 400T286 388L281 353ZM256 -9Q316 -9 366 15T450 81T492 181Q499 230 484 265T438 324T367 360T284 375L278 339Q310 337 341 327T396 298T432 252T438 187Q432 145 407 113T344 61T261 43Q214 43 183 61T138 112T126 185H71Q67 144 77 109T112 47T172
6T256 -9Z" />
<glyph unicode="4" horiz-adv-x="553" d="M19 141L521 140L530 189H400H389L118 190L431 569L365 171L364 162L335 0H389L509 700L488 699L19 141Z" />
<glyph unicode="5" horiz-adv-x="544" d="M514 230Q521 289 504 340T447 424T348 458Q306 458 271 443T208 408L305 651H583L593 700H271L125 328Q155 352 186 370T250 399T322 408Q370 406 403 382T450 318T458 230Q450 176 422 134T351 67T253 43Q211 43 180
59T128 104T93 168L43 138Q59 95 87 62T154 10T248 -9Q299 -9 344 7T424 56T483 132T514 230Z" />
<glyph unicode="6" horiz-adv-x="543" d="M118 226Q126 274 154 315T226 382T323 408Q371 407 404 381T453 314T461 226Q454 175 426 133T355 65T260 41Q208 41 174 67T126 135T118 226ZM410 700L136 377Q111 347 92 308T66 226Q58 163 78 110T143 24T255 -9Q322
-9 377 22T468 107T514 226Q519 268 510 308T478 379T422 429T345 449Q302 449 268 435T205 394L210 390L480 700H410Z" />
<glyph unicode="7" horiz-adv-x="505" d="M112 648H499L85 0H144L592 700H121L112 648Z" />
<glyph unicode="8" horiz-adv-x="517" d="M144 536Q138 499 147 467T176 411T227 374T296 361Q334 361 369 373T432 409T479 465T504 535Q509 570 500 601T470 656T419 695T351 710Q300 710 255 686T181 623T144 536ZM194 529Q199 564 221 594T275 643T346 661Q384
660 409 642T445 593T451 529Q444 493 421 463T365 414T298 397Q265 397 240 416T202 465T194 529ZM62 189Q56 149 65 114T97 51T154 7T232 -9Q277 -10 316 5T387 48T439 111T467 188Q473 229 462 265T428 327T370 368T296 383Q253 383 214 369T143 328T90 267T62
189ZM115 194Q121 236 148 270T214 326T293 347Q333 346 362 325T407 269T416 194Q409 150 384 115T320 60T237 40Q193 40 164 61T121 117T115 194Z" />
<glyph unicode="9" horiz-adv-x="543" d="M499 474Q492 426 464 384T392 317T294 293Q246 293 213 319T165 386T156 474Q164 525 191 567T262 635T358 660Q409 659 443 633T491 565T499 474ZM208 0L482 323Q506 353 525 392T552 474Q560 538 540 591T474 677T362
710Q294 710 239 678T149 593T104 474Q99 432 108 392T139 321T195 271T273 252Q314 251 348 265T412 307L407 311L137 0H208Z" />
<glyph unicode=":" horiz-adv-x="291" d="M79 24Q79 8 89 -2T115 -12Q130 -12 141 -2T152 24Q152 40 141 51T115 62Q100 62 90 51T79 24ZM142 392Q142 376 152 366T178 355Q193 355 204 365T215 392Q215 408 204 418T178 429Q163 429 153 419T142 392Z" />
<glyph unicode=";" horiz-adv-x="298" d="M171 392Q171 376 181 366T208 355Q222 355 233 365T244 392Q244 408 233 418T208 429Q192 429 182 419T171 392ZM145 103L8 -152L43 -165L194 82L145 103Z" />
<glyph unicode="&lt;" horiz-adv-x="621" d="M164 258L606 435L616 489L82 272L77 244L536 28L546 76L164 258Z" />
<glyph unicode="=" horiz-adv-x="596" d="M63 159L534 158L543 207H72L63 159ZM87 299L559 298L568 347H96L87 299Z" />
<glyph unicode="&gt;" horiz-adv-x="621" d="M491 258L49 81L39 27L573 243L578 272L119 487L109 439L491 258Z" />
<glyph unicode="?" horiz-adv-x="534" d="M477 508Q467 462 435 426T353 369T248 345H233L218 171H256L284 309Q343 315 395 340T483 408T529 508Q535 548 527 584T495 649T436 693T357 710Q306 710 266 695T194 654T134 595L173 567Q205 607 247 634T346 661Q394
660 425 640T470 585T477 508ZM174 24Q174 8 184 -2T211 -12Q225 -12 236 -2T247 24Q247 39 237 50T211 62Q195 62 185 51T174 24Z" />
<glyph unicode="@" horiz-adv-x="747" d="M266 320Q272 364 295 401T352 461T424 483Q453 482 471 466T495 424T498 370Q492 326 469 289T412 230T341 209Q311 210 293 225T269 266T266 320ZM217 319Q211 276 222 241T259 184T325 162Q375 161 417 190T488 266T523
369Q528 405 521 441T492 503T429 529Q379 530 334 502T256 426T217 319ZM61 320Q50 251 62 192T107 88T194 18T324 -8Q398 -9 456 7T566 49L549 89Q499 63 445 49T328 35Q244 36 191 74T116 176T106 320Q118 390 151 452T236 563T351 639T491 666Q554 665 599
642T671 579T708 490T708 390Q704 353 689 317T650 252T602 208T551 196Q532 197 523 207T513 232T514 259Q514 266 516 274T521 289L602 520H552L474 279H479Q471 247 473 219T491 172T540 151Q576 149 611 167T677 218T727 295T754 390Q764 449 752 505T706 608T620
681T495 709Q411 709 338 679T207 595T111 470T61 320Z" />
<glyph unicode="A" horiz-adv-x="617" d="M149 235H498L489 287H174L149 235ZM384 600L462 266L464 253L522 0H581L406 728L-20 0H42L189 257L197 269L384 600Z" />
<glyph unicode="B" horiz-adv-x="516" d="M160 377H272Q325 377 372 394T450 445T491 531Q497 571 488 602T455 655T396 688T319 700H174L54 0H214Q279 0 334 23T426 91T473 203Q479 249 466 284T425 342T359 378T280 391H163L157 360L274 359Q307 359 336 348T385
317T415 269T419 206Q411 156 383 121T312 68T219 50L118 49L219 651H314Q375 650 410 617T436 528Q429 489 405 463T346 422T270 408H165L160 377Z" />
<glyph unicode="C" horiz-adv-x="664" d="M133 350Q143 413 172 467T244 563T343 628T460 653Q504 653 540 643T607 611T661 558L674 631Q632 670 583 689T467 709Q392 709 327 681T208 603T121 489T75 350Q64 280 78 216T128 101T219 21T348 -9Q419 -9 474 11T579
69L591 142Q560 114 523 93T444 59T354 48Q293 48 248 73T174 140T135 237T133 350Z" />
<glyph unicode="D" horiz-adv-x="642" d="M173 700L55 0H108L228 700H173ZM241 0Q318 0 384 26T502 100T587 211T633 350Q643 422 630 485T580 596T488 672T356 700H203L192 645H350Q415 645 461 622T537 558T577 464T579 350Q568 286 540 232T468 139T369 77T247
55H93L83 0H241Z" />
<glyph unicode="E" horiz-adv-x="517" d="M83 0H421L430 52H92L83 0ZM193 648H530L540 700H202L193 648ZM144 359H462L471 410H153L144 359ZM173 700L55 0H108L228 700H173Z" />
<glyph unicode="F" horiz-adv-x="465" d="M193 648H492L501 700H202L193 648ZM143 354L432 353L442 405H152L143 354ZM173 700L55 0H108L228 700H173Z" />
<glyph unicode="G" horiz-adv-x="748" d="M421 297H663Q647 248 620 204T555 124T468 67T361 47Q298 47 252 72T175 139T134 236T132 350Q142 413 171 468T246 565T347 630T467 654Q544 654 600 620T684 525L728 558Q703 606 666 640T581 691T474 709Q397 709
330 681T210 604T121 490T75 350Q64 279 78 215T130 100T223 20T355 -9Q432 -9 495 20T608 100T688 215T733 349H431L421 297Z" />
<glyph unicode="H" horiz-adv-x="666" d="M143 356H602L611 407H152L143 356ZM624 700L505 0H559L680 700H624ZM173 700L55 0H108L228 700H173Z" />
<glyph unicode="I" horiz-adv-x="212" d="M172 700L53 0H106L227 700H172Z" />
<glyph unicode="J" horiz-adv-x="215" d="M-138 -126L-172 -167Q-163 -180 -147 -192T-109 -211T-64 -219Q-29 -220 -2 -209T46 -177T79 -126T99 -60L228 700H176L47 -50Q40 -103 14 -135T-57 -168Q-84 -168 -104 -156T-138 -126Z" />
<glyph unicode="K" horiz-adv-x="504" d="M172 700L53 0H106L226 700H172ZM505 700L154 373L403 0H468L219 371L577 700H505Z" />
<glyph unicode="L" horiz-adv-x="428" d="M174 700L54 0H389L399 52H118L228 700H174Z" />
<glyph unicode="M" horiz-adv-x="794" d="M225 554L384 80L701 551L666 0H720L768 730L403 191L223 728L18 0H73L225 554Z" />
<glyph unicode="N" horiz-adv-x="723" d="M684 700L585 114L172 726L47 0H102L201 585L613 -26L738 700H684Z" />
<glyph unicode="O" horiz-adv-x="759" d="M132 350Q142 413 171 467T245 564T346 630T466 654Q529 653 576 628T651 560T691 463T694 350Q683 287 654 233T580 136T480 70T360 47Q297 47 250 72T174 140T134 237T132 350ZM75 350Q64 280 78 216T129 101T222 21T354
-9Q429 -9 496 19T616 97T705 212T752 350Q762 420 748 484T697 599T603 679T472 709Q396 709 329 681T209 603T121 488T75 350Z" />
<glyph unicode="P" horiz-adv-x="504" d="M173 700L55 0H108L228 700H173ZM194 648H326Q373 647 407 629T457 576T466 493Q457 445 430 410T361 357T270 338H142L132 286H264Q328 286 382 311T474 383T521 493Q530 554 508 600T439 673T331 700H204L194 648Z" />
<glyph unicode="Q" horiz-adv-x="758" d="M132 350Q142 413 171 467T245 564T346 630T466 654Q529 653 576 628T651 560T691 463T694 350Q683 287 654 233T580 136T480 70T360 47Q297 47 250 72T174 140T134 237T132 350ZM75 350Q64 280 78 216T129 101T222 21T354
-9Q429 -9 496 19T616 97T705 212T752 350Q762 420 748 484T697 599T603 679T473 709Q396 709 330 681T210 603T121 488T75 350ZM401 300L649 0H717L469 300H401Z" />
<glyph unicode="R" horiz-adv-x="507" d="M227 334L397 0H460L286 334H227ZM173 700L55 0H108L228 700H173ZM192 651H322Q371 651 407 633T461 580T471 497Q462 448 434 414T362 361T267 343H141L132 294H262Q327 294 383 318T477 388T525 497Q535 559 511 604T439
675T327 700H202L192 651Z" />
<glyph unicode="S" horiz-adv-x="508" d="M88 204L44 175Q56 127 81 86T149 18T251 -9Q296 -9 336 6T407 50T455 116T476 196Q477 236 465 267T432 319T384 357T331 385Q299 398 273 413T228 446T200 488T192 539Q195 573 212 599T260 641T332 657Q378 657 407
639T452 594T478 538L526 563Q515 600 492 633T431 688T338 709Q280 709 235 686T164 622T135 532Q133 493 147 463T184 412T234 374T289 346Q325 329 355 310T404 262T419 190Q417 152 396 118T338 64T252 43Q202 43 171 65T120 123T88 204Z" />
<glyph unicode="T" horiz-adv-x="437" d="M95 648H275L164 0H218L329 648H507L517 700H106L95 648Z" />
<glyph unicode="U" horiz-adv-x="587" d="M169 700L88 226Q81 179 89 137T119 61T179 10T268 -9Q324 -9 368 8T444 58T496 134T524 226L605 700H551L469 226Q461 174 437 133T372 67T273 43Q219 43 189 68T147 135T142 226L223 700H169Z" />
<glyph unicode="V" horiz-adv-x="617" d="M307 101L159 700H100L287 -28L701 700H638L307 101Z" />
<glyph unicode="W" horiz-adv-x="944" d="M680 120L568 729L270 120L164 700H105L243 -28L544 575L659 -28L1024 700H963L680 120Z" />
<glyph unicode="X" horiz-adv-x="517" d="M515 700L308 417L192 700H129L274 369L-5 0H61L293 317L424 0H486L328 366L582 700H515Z" />
<glyph unicode="Y" horiz-adv-x="523" d="M546 700L290 340L161 700H102L256 289L205 0H259L309 287L609 700H546Z" />
<glyph unicode="Z" horiz-adv-x="524" d="M118 648H498L-12 0H466L476 52L92 53L602 700H128L118 648Z" />
<glyph unicode="[" horiz-adv-x="275" d="M244 731L352 732L360 780H200L45 -220H206L215 -171H105L244 731Z" />
<glyph unicode="\" horiz-adv-x="468" d="M106 701L374 0H426L161 700L106 701Z" />
<glyph unicode="]" horiz-adv-x="275" d="M85 -171H-24L-32 -220H128L282 780H122L114 731H222L85 -171Z" />
<glyph unicode="^" horiz-adv-x="494" d="M332 650L433 460H483L352 710H328L113 461H168L332 650Z" />
<glyph unicode="_" horiz-adv-x="485" d="M-49 -122H438L444 -86H-42L-49 -122Z" />
<glyph unicode="`" horiz-adv-x="354" d="M168 674L319 521L349 539L219 700L168 674Z" />
<glyph unicode="a" horiz-adv-x="449" d="M81 136Q86 171 107 194T161 229T230 241Q268 241 301 230T366 195L371 227Q359 240 339 252T291 273T229 282Q178 282 135 265T64 215T28 135Q22 91 38 59T85 9T157 -9Q201 -10 240 9T308 63T347 145L341 183Q331 139
307 106T249 54T175 37Q145 37 123 48T88 82T81 136ZM128 373Q146 385 168 396T216 416T275 423Q303 423 322 414T352 391T366 359T368 323L310 0H362L417 326Q424 369 409 401T361 451T282 470Q228 470 185 453T109 414L128 373Z" />
<glyph unicode="b" horiz-adv-x="541" d="M229 780H178L44 0H95L229 780ZM516 230Q525 293 507 348T446 437T339 470Q293 469 254 450T185 396T136 319T111 230Q105 187 110 145T134 67T183 11T262 -10Q326 -10 380 21T470 107T516 230ZM466 230Q457 176 428 133T355
65T260 40Q225 40 199 56T158 100T136 161T135 230Q140 267 157 301T201 362T260 405T328 421Q379 421 412 395T458 325T466 230Z" />
<glyph unicode="c" horiz-adv-x="467" d="M103 230Q111 283 140 326T213 394T311 421Q344 421 371 412T419 385T452 346L462 411Q438 437 400 453T316 470Q248 469 191 437T97 351T51 230Q42 166 63 112T131 24T245 -9Q294 -9 335 7T407 49L417 113Q399 94 374
77T317 50T250 40Q198 40 163 66T112 137T103 230Z" />
<glyph unicode="d" horiz-adv-x="541" d="M524 780L392 0H442L577 780H524ZM49 230Q40 166 59 111T120 23T227 -9Q273 -9 312 10T380 64T429 141T456 230Q462 273 456 315T432 393T383 449T305 470Q241 471 187 439T96 352T49 230ZM102 230Q110 283 139 327T211
396T306 421Q341 420 367 404T408 360T430 298T432 230Q425 193 408 159T364 98T306 55T238 40Q188 40 155 66T108 136T102 230Z" />
<glyph unicode="e" horiz-adv-x="498" d="M234 -10Q303 -10 357 21T450 107L410 134Q378 90 336 65T240 39Q196 39 165 60T118 118T102 202Q102 245 117 285T159 356T222 405T300 424Q341 424 370 406T414 356T429 283Q429 268 425 255T417 231L438 262H84V217H471Q475
226 478 243T482 274Q482 335 460 378T397 445T303 470Q250 470 205 448T124 388T70 301T50 199Q50 135 73 88T138 16T234 -10Z" />
<glyph unicode="f" horiz-adv-x="273" d="M94 460L84 411H295L305 460H94ZM356 705L391 745Q383 756 372 766T346 782T312 789Q269 790 239 769T191 714T167 639L58 0H110L218 632Q222 658 231 682T258 721T303 738Q320 737 333 728T356 705Z" />
<glyph unicode="g" horiz-adv-x="541" d="M16 -30Q10 -86 30 -131T92 -203T196 -229Q261 -229 313 -199T400 -114T445 10L522 460H471L393 10Q385 -47 357 -89T288 -156T197 -180Q151 -180 121 -160T77 -105T68 -30H16ZM49 230Q40 166 59 111T120 23T227 -9Q273
-9 312 10T380 64T429 141T456 230Q462 273 456 315T432 393T383 449T305 470Q241 471 187 439T96 352T49 230ZM102 230Q110 283 139 327T211 396T306 421Q340 420 366 404T408 360T430 299T432 232Q426 194 408 160T364 98T306 56T238 40Q188 40 155 66T108 136T102
230Z" />
<glyph unicode="h" horiz-adv-x="489" d="M234 780H183L49 0H100L234 780ZM386 296L336 0H386L438 302Q444 348 435 386T398 447T321 470Q271 470 231 443T165 373T129 281H148Q157 317 178 349T232 401T304 421Q342 420 360 403T384 358T386 296Z" />
<glyph unicode="i" horiz-adv-x="225" d="M163 668Q163 653 173 643T199 632Q215 632 225 642T236 668Q236 683 226 694T199 705Q183 705 173 694T163 668ZM138 460L61 0H112L191 460H138Z" />
<glyph unicode="j" horiz-adv-x="215" d="M151 668Q151 653 161 643T188 632Q204 632 214 642T224 668Q224 683 214 693T188 704Q172 704 162 694T151 668ZM-99 -134L-133 -176Q-124 -188 -112 -197T-85 -213T-50 -219Q-8 -220 21 -199T67 -144T91 -69L181 460H129L40
-63Q36 -87 27 -112T-1 -152T-45 -168Q-62 -168 -76 -157T-99 -134Z" />
<glyph unicode="k" horiz-adv-x="399" d="M177 780L45 0H95L230 780H177ZM364 460L123 272L307 0H369L185 266L432 460H364Z" />
<glyph unicode="l" horiz-adv-x="203" d="M182 780L50 0H100L234 780H182Z" />
<glyph unicode="m" horiz-adv-x="721" d="M670 302Q675 345 668 383T636 445T566 470Q516 470 477 441T412 363Q409 392 398 416T365 455T307 470Q276 470 250 458T201 423T166 371L180 460H128L48 0H100L151 287Q156 324 176 354T225 402T291 420Q324 420 340
403T359 356T359 296L309 0H359L409 285Q414 320 433 351T483 401T550 420Q583 420 599 403T618 356T618 296L567 0H619L670 302Z" />
<glyph unicode="n" horiz-adv-x="489" d="M386 296L336 0H386L438 302Q444 346 435 384T397 446T321 470Q268 470 229 442T166 369L180 460H128L48 0H100L151 286Q157 323 178 353T232 402T304 421Q341 421 360 404T384 358T386 296Z" />
<glyph unicode="o" horiz-adv-x="533" d="M56 230Q47 166 68 112T136 24T250 -9Q317 -9 374 23T468 109T515 230Q524 294 502 348T433 436T321 470Q253 470 196 438T102 351T56 230ZM108 230Q115 283 144 326T218 395T316 421Q368 420 403 393T454 323T463 230Q456
178 426 135T352 65T254 40Q202 40 167 66T117 137T108 230Z" />
<glyph unicode="p" horiz-adv-x="541" d="M59 -219L174 460H124L6 -220L59 -219ZM516 230Q525 293 507 348T446 437T339 470Q293 469 254 450T185 396T136 319T111 230Q105 187 110 145T134 67T183 11T262 -10Q326 -10 380 21T470 107T516 230ZM466 230Q457 176
428 133T355 65T260 40Q225 40 199 56T158 100T136 161T135 230Q140 267 157 301T201 362T260 405T328 421Q379 421 412 395T458 325T466 230Z" />
<glyph unicode="q" horiz-adv-x="541" d="M354 -220H405L522 460H471L354 -220ZM49 230Q40 166 59 111T120 23T227 -9Q273 -9 312 10T380 64T429 141T456 230Q462 273 456 315T432 393T383 449T305 470Q241 471 187 439T96 352T49 230ZM102 230Q110 283 139 327T211
396T306 421Q341 420 367 404T408 360T430 298T432 230Q425 193 408 159T364 98T306 55T238 40Q188 40 155 66T108 136T102 230Z" />
<glyph unicode="r" horiz-adv-x="311" d="M180 460H128L48 0H100L180 460ZM318 400L353 441Q337 454 320 462T281 470Q238 470 206 442T152 370T123 281H148Q154 314 168 346T205 400T263 421Q279 421 291 415T318 400Z" />
<glyph unicode="s" horiz-adv-x="391" d="M80 135L37 112Q45 82 65 54T118 8T199 -10Q242 -10 276 8T332 57T354 128Q356 167 339 192T295 233T235 262Q208 272 187 283T154 310T144 354Q146 387 172 406T235 425Q276 425 301 403T342 350L382 376Q371 401 352
422T304 456T238 469Q203 469 171 455T117 414T94 348Q92 309 108 285T150 246T206 220Q231 211 254 199T291 168T303 122Q301 85 273 61T203 37Q168 37 144 51T105 87T80 135Z" />
<glyph unicode="t" horiz-adv-x="213" d="M62 460L52 411H249L259 460H62ZM160 620L55 0H105L212 620H160Z" />
<glyph unicode="u" horiz-adv-x="489" d="M129 168L179 460H129L77 162Q70 116 79 77T116 15T193 -9Q246 -9 285 18T349 91L335 0H386L466 460H414L364 175Q358 139 337 108T282 59T210 40Q173 40 154 57T130 104T129 168Z" />
<glyph unicode="v" horiz-adv-x="418" d="M58 460L188 -28L471 460H411L207 87L115 460H58Z" />
<glyph unicode="w" horiz-adv-x="636" d="M61 460L150 -28L348 355L422 -28L681 460H623L442 105L370 489L177 106L117 460H61Z" />
<glyph unicode="x" horiz-adv-x="391" d="M373 460L222 278L125 460H68L188 241L-15 0H46L210 197L314 0H371L245 234L435 460H373Z" />
<glyph unicode="y" horiz-adv-x="420" d="M471 460H412L188 71L212 68L113 460H56L167 49L4 -219H63L471 460Z" />
<glyph unicode="z" horiz-adv-x="434" d="M363 411L-12 0H380L390 49H92L468 460H93L83 411H363Z" />
<glyph unicode="{" horiz-adv-x="289" d="M245 652Q250 690 266 712T318 734H346L353 780H309Q276 780 252 762T212 713T191 641L159 430Q153 383 136 354T91 310L84 270Q107 252 114 224T117 150L85 -60Q80 -98 85 -130T109 -181T160 -200H203L210 -153H181Q158
-153 147 -143T133 -114T132 -72L161 114Q165 144 166 173T162 228T141 272T98 297L95 284Q126 288 147 305T181 347T203 403T217 466L245 652Z" />
<glyph unicode="|" horiz-adv-x="240" d="M200 785L47 -214H94L248 785H200Z" />
<glyph unicode="}" horiz-adv-x="289" d="M105 -72Q100 -110 83 -132T33 -154H5L-3 -199H42Q75 -199 99 -182T139 -133T159 -60L191 150Q198 198 215 226T260 270L266 310Q243 328 236 356T234 430L266 640Q270 678 265 710T241 761T190 780H148L141 734H169Q192
733 202 723T216 695T218 653L189 466Q185 437 184 407T188 352T208 308T253 283L255 297Q224 292 203 275T168 233T146 177T133 114L105 -72Z" />
<glyph unicode="~" horiz-adv-x="558" d="M127 177Q126 183 126 188T127 199Q132 232 154 255T211 279Q229 279 243 272T271 253T296 229Q319 207 343 190T398 173Q423 172 446 183T487 214Q501 230 508 250T519 290Q520 297 520 304T519 318L470 322Q472 315
472 308T471 294Q466 265 448 244T400 222Q378 221 359 236T325 267Q310 282 294 295T258 318T216 327Q186 327 160 315T116 281Q102 265 93 246T81 206Q80 199 80 193T81 181L127 177Z" />
<glyph unicode="&#xa0;" horiz-adv-x="300" />
<glyph unicode="&#xa1;" horiz-adv-x="291" d="M117 -245L189 255H150L52 -245H117ZM235 430Q237 445 228 456T206 468Q191 469 178 457T163 432Q160 417 169 406T193 394Q207 392 220 404T235 430Z" />
<glyph unicode="&#xa2;" horiz-adv-x="562" d="M263 21L237 -111H280L302 21H263ZM144 230Q152 282 182 325T258 394T356 421Q405 421 441 400T495 346L506 411Q482 437 444 453T361 470Q293 469 236 437T140 351T92 230Q83 167 103 112T170 24T283 -9Q331 -9
373 7T446 49L456 113Q429 85 385 62T288 40Q236 40 201 67T152 137T144 230ZM355 578L333 443H372L398 578H355Z" />
<glyph unicode="&#xa3;" horiz-adv-x="562" d="M105 344L95 295H426L436 344H105ZM504 488L553 504Q556 536 550 571T525 638T477 689T400 710Q358 710 321 696T256 657T208 598T182 527Q178 492 184 464T201 410T223 360T240 310T243 255Q233 205 203 164T131
84T47 0H467L478 52H112L109 31Q135 46 165 70T222 123T270 188T296 264Q300 293 294 319T277 369T254 418T238 469T237 527Q244 563 266 592T322 639T394 656Q431 655 453 639T487 598T503 543T504 488Z" />
<glyph unicode="&#xa4;" horiz-adv-x="554" d="M103 512L170 431L208 462L142 545L103 512ZM60 56L153 135L125 170L32 91L60 56ZM482 431L575 509L548 545L454 465L482 431ZM399 138L466 56L503 88L437 170L399 138ZM74 300Q64 237 84 183T151 95T263 61Q329
61 386 93T482 179T530 300Q539 363 519 417T452 506T341 540Q274 540 217 508T122 421T74 300ZM126 300Q134 352 164 395T239 464T336 491Q387 490 421 463T469 392T478 300Q469 249 439 206T365 136T268 110Q216 110 182 137T134 208T126 300Z" />
<glyph unicode="&#xa5;" horiz-adv-x="556" d="M60 283L528 282L537 331H68L60 283ZM35 143L504 142L513 191H44L35 143ZM557 700L302 340L173 700H114L268 291L216 0H272L322 289L621 700H557Z" />
<glyph unicode="&#xa6;" horiz-adv-x="240" d="M189 695L147 456H194L236 695H189ZM159 245H112L70 6H117L159 245Z" />
<glyph unicode="&#xa7;" horiz-adv-x="391" d="M395 595L438 619Q429 647 408 667T356 699T292 710Q256 709 221 696T162 657T131 594Q127 566 136 546T163 510T204 484T248 463Q271 452 295 439T334 408T346 362Q342 334 324 314T278 281T219 261L216 241Q250
242 280 249T336 270T377 308T399 366Q404 398 388 422T345 465T290 497Q273 504 254 512T216 532T189 559T182 593Q185 616 202 630T242 652T288 660Q312 660 333 653T369 630T395 595ZM68 147L23 124Q27 85 48 56T103 9T179 -9Q211 -10 241 -3T295 21T336 61T357
118Q362 154 346 179T303 223T246 256Q228 264 209 273T173 295T148 325T143 365Q147 391 165 410T211 442T272 464L275 479Q238 478 207 470T151 447T112 411T91 360Q85 324 102 299T147 255T204 222Q229 211 253 197T293 164T303 115Q299 88 281 71T238 47T187
40Q154 40 128 54T87 92T68 147Z" />
<glyph unicode="&#xa8;" horiz-adv-x="436" d="M365 673Q364 658 372 647T396 635Q409 633 423 645T439 671Q440 686 430 697T407 709Q392 710 379 698T365 673ZM171 673Q170 658 178 647T202 635Q215 633 229 645T245 671Q246 686 236 697T213 709Q198 710 185
698T171 673Z" />
<glyph unicode="&#xa9;" horiz-adv-x="776" d="M253 351Q261 401 288 442T356 507T448 532Q488 532 517 517T569 475L576 519Q550 542 520 554T450 566Q391 565 342 536T259 458T218 350Q210 293 229 245T288 166T387 135Q429 134 461 146T524 181L531 224Q503
200 468 184T389 169Q340 169 307 194T261 261T253 351ZM112 351Q122 418 154 477T235 580T346 650T477 676Q545 675 597 649T684 577T733 474T739 350Q728 283 696 224T615 120T504 50T374 25Q305 25 253 51T166 123T117 227T112 351ZM75 350Q65 278 82 213T138
98T236 19T372 -10Q448 -10 516 17T639 94T729 209T775 350Q785 422 768 487T712 602T613 681T479 710Q402 710 334 683T211 606T121 491T75 350Z" />
<glyph unicode="&#xaa;" horiz-adv-x="230" d="M111 530Q114 555 138 571T189 588Q209 588 225 582T255 564L258 581Q246 589 231 598T189 608Q154 608 122 587T85 531Q80 498 99 477T150 456Q187 455 211 477T245 530L241 546Q232 518 210 498T158 480Q135 480
122 493T111 530ZM139 652Q153 661 172 670T213 679Q236 678 245 665T256 631L226 461H252L281 631Q284 663 267 682T215 703Q188 703 167 694T129 674L139 652Z" />
<glyph unicode="&#xab;" horiz-adv-x="484" d="M267 257L469 459L441 490L211 257L363 20L400 49L267 257ZM112 257L314 459L286 490L55 257L208 20L245 49L112 257Z" />
<glyph unicode="&#xac;" horiz-adv-x="601" d="M90 326H519L493 176H542L577 375H100L90 326Z" />
<glyph unicode="&#xad;" horiz-adv-x="203" d="M16 227H211L220 275H25L16 227Z" />
<glyph unicode="&#xae;" horiz-adv-x="776" d="M381 351L488 150H527L418 351H381ZM346 570L282 151H315L380 570H346ZM358 540H436Q478 538 505 515T527 448Q521 403 486 380T406 355H330L326 327H403Q460 328 506 359T560 448Q568 504 531 536T439 570H363L358
540ZM112 350Q122 418 154 477T235 580T346 650T477 676Q545 675 597 649T684 577T733 474T739 350Q728 283 696 224T615 120T504 50T374 25Q305 25 253 51T166 123T117 227T112 350ZM75 350Q65 278 82 213T138 98T236 19T372 -10Q448 -10 516 18T639 95T729 209T775
350Q785 422 768 487T712 602T613 681T479 710Q402 710 334 682T211 605T121 491T75 350Z" />
<glyph unicode="&#xaf;" horiz-adv-x="494" d="M156 626H497L505 675H165L156 626Z" />
<glyph unicode="&#xb0;" horiz-adv-x="269" d="M94 601Q90 568 100 541T134 498T191 481Q225 480 254 496T302 539T327 600Q331 632 320 659T286 702T230 720Q196 720 167 704T118 661T94 601ZM122 600Q126 626 141 646T179 680T228 693Q265 692 284 664T299 600Q294
575 279 554T242 520T193 508Q156 508 136 536T122 600Z" />
<glyph unicode="&#xb1;" horiz-adv-x="594" d="M47 0H516L525 52H55L47 0ZM102 359H571L580 411H110L102 359ZM348 620L277 151L330 150L404 620H348Z" />
<glyph unicode="&#xb2;" horiz-adv-x="329" d="M47 283H325L331 313L122 314L297 471Q322 495 343 523T370 587Q375 616 366 644T333 690T270 709Q227 709 196 689T144 634T115 559H148Q154 590 170 617T211 662T268 678Q295 677 311 664T334 630T337 589Q333
558 313 535T272 490L47 283Z" />
<glyph unicode="&#xb3;" horiz-adv-x="300" d="M193 492Q228 494 260 506T314 540T342 596Q346 624 337 648T305 689T250 706Q198 706 164 675T118 598L150 597Q159 628 184 652T247 676Q282 674 298 650T310 596Q305 571 288 553T247 526T197 513L193 492ZM176
275Q211 275 241 289T293 329T319 389Q323 418 314 439T287 474T245 495T196 505L192 483Q217 481 240 471T277 442T286 393Q280 355 250 330T178 306Q135 306 117 330T99 391H65Q63 358 75 332T112 290T176 275Z" />
<glyph unicode="&#xb4;" horiz-adv-x="354" d="M360 671L316 700L138 542L165 521L360 671Z" />
<glyph unicode="&#xb5;" horiz-adv-x="489" d="M180 460H128L-5 -319L45 -320L106 37Q118 16 138 4T193 -9Q245 -9 284 17T348 85L335 0H386L466 460H414L364 175Q358 138 337 108T282 59T210 40Q175 39 156 54T129 97T126 158L180 460Z" />
<glyph unicode="&#xb6;" horiz-adv-x="509" d="M298 271L215 -219H260L409 658H492L343 -219H388L545 700H371Q307 700 252 675T161 601T113 486Q103 421 125 374T192 301T298 271Z" />
<glyph unicode="&#xb7;" horiz-adv-x="267" d="M111 233Q109 223 112 215T123 201T141 196Q150 195 159 200T175 214T184 231Q185 241 181 250T170 264T153 270Q144 270 134 265T118 252T111 233Z" />
<glyph unicode="&#xb8;" horiz-adv-x="339" d="M161 35L67 -99Q84 -91 102 -85T137 -79Q150 -79 161 -85T178 -101T182 -125Q180 -143 168 -156T138 -176T104 -184Q84 -184 72 -177T45 -156L18 -181Q37 -200 55 -209T100 -219Q127 -220 153 -209T197 -176T219
-127Q221 -105 213 -89T191 -64T159 -52Q149 -52 142 -55T126 -62L202 35H161Z" />
<glyph unicode="&#xb9;" horiz-adv-x="456" d="M224 634L321 658L257 275H290L364 700L230 668L224 634Z" />
<glyph unicode="&#xba;" horiz-adv-x="269" d="M91 581Q84 532 110 497T188 461Q221 460 250 476T298 520T323 580Q328 612 317 639T283 682T226 700Q192 700 163 684T115 641T91 581ZM118 580Q122 606 137 626T176 660T224 673Q262 672 281 644T296 580Q291 555
276 534T238 500T190 488Q152 488 133 516T118 580Z" />
<glyph unicode="&#xbb;" horiz-adv-x="484" d="M251 254L49 52L78 21L308 253L155 490L118 461L251 254ZM407 254L205 52L233 21L463 253L311 490L274 461L407 254Z" />
<glyph unicode="&#xbc;" horiz-adv-x="731" d="M711 699L68 0H112L756 699H711ZM106 634L203 658L139 275H172L245 700L112 668L106 634ZM375 85H677L682 113H604H597L406 112L375 85ZM410 85L623 340L583 102V98L566 0H599L670 420L656 419L374 86L410 85Z" />
<glyph unicode="&#xbd;" horiz-adv-x="794" d="M711 699L68 0H112L756 699H711ZM106 634L203 658L139 275H172L245 700L112 668L106 634ZM453 3H732L738 33L528 34L702 191Q728 215 749 243T776 306Q781 335 772 363T739 409T676 429Q633 429 601 409T549 354T521
279H554Q560 310 576 337T618 382T674 397Q702 396 718 383T740 350T743 309Q738 278 719 255T677 209L453 3Z" />
<glyph unicode="&#xbe;" horiz-adv-x="795" d="M776 699L133 0H177L821 699H776ZM198 492Q233 494 265 506T319 540T347 596Q351 624 341 648T309 689T254 706Q202 706 168 675T123 598L155 597Q163 628 188 652T252 676Q287 674 303 650T315 596Q310 571 293
553T252 526T202 513L198 492ZM181 275Q216 275 246 289T298 329T324 389Q328 418 319 439T292 474T250 495T201 505L196 483Q222 481 245 471T282 442T291 393Q285 355 255 330T183 306Q139 306 121 330T104 391H70Q68 358 80 332T117 290T181 275ZM440 85H742L747
113H669H662L471 112L440 85ZM475 85L688 340L649 102L648 98L631 0H664L735 420L721 419L439 86L475 85Z" />
<glyph unicode="&#xbf;" horiz-adv-x="534" d="M123 192Q132 234 162 270T242 329T354 355H368L383 530H344L316 391Q257 385 205 360T117 291T72 193Q65 152 73 116T105 51T164 7T243 -9Q294 -10 334 5T407 46T467 106L428 134Q395 94 353 67T254 40Q206 40 174
60T129 114T123 192ZM426 675Q428 690 419 701T396 713Q387 713 377 708T361 695T354 677Q352 662 360 651T383 639Q393 638 402 643T418 657T426 675Z" />
<glyph unicode="&#xc0;" horiz-adv-x="617" d="M148 236L498 235L489 287H173L148 236ZM384 600L462 266L464 253L522 0H581L406 728L-20 0H42L189 257L197 269L384 600ZM314 941L462 787L492 806L365 967L314 941Z" />
<glyph unicode="&#xc1;" horiz-adv-x="617" d="M148 236L498 235L489 287H173L148 236ZM384 600L462 266L464 253L522 0H581L406 728L-20 0H42L189 257L197 269L384 600ZM571 938L528 967L347 809L374 788L571 938Z" />
<glyph unicode="&#xc2;" horiz-adv-x="617" d="M148 236L498 235L489 287H173L148 236ZM384 600L462 266L464 253L522 0H581L406 728L-20 0H42L189 257L197 269L384 600ZM432 874L537 764L572 789L439 930L261 792L289 764L432 874Z" />
<glyph unicode="&#xc3;" horiz-adv-x="617" d="M148 236L498 235L489 287H173L148 236ZM384 600L462 266L464 253L522 0H581L406 728L-20 0H42L189 257L197 269L384 600ZM274 808L306 784Q310 794 317 805T335 824T366 834Q387 834 402 823T434 800T475 788Q496
787 514 796T546 820T573 851L546 879Q532 860 517 846T482 832Q465 831 452 837T428 853T403 870T370 878Q347 878 328 868T295 842T274 808Z" />
<glyph unicode="&#xc4;" horiz-adv-x="617" d="M148 236L498 235L489 287H173L148 236ZM384 600L462 266L464 253L522 0H581L406 728L-20 0H42L189 257L197 269L384 600ZM485 833Q483 818 492 807T515 796Q528 794 542 805T557 831Q559 846 550 857T528 870Q513
871 500 859T485 833ZM291 833Q289 818 298 807T321 796Q334 794 348 805T363 831Q365 846 356 857T333 870Q319 871 306 859T291 833Z" />
<glyph unicode="&#xc5;" horiz-adv-x="617" d="M148 236L498 235L489 287H173L148 236ZM384 600L462 266L464 253L522 0H581L406 728L-20 0H42L189 257L197 269L384 600ZM319 803Q315 776 325 753T355 717T402 703Q429 702 454 715T496 751T518 801Q522 828 512
851T481 887T434 902Q407 902 382 889T340 853T319 803ZM353 802Q355 820 367 835T396 861T431 870Q456 868 471 848T484 803Q482 785 470 769T440 744T406 735Q382 736 366 756T353 802Z" />
<glyph unicode="&#xc6;" horiz-adv-x="906" d="M220 239L508 238L518 290H229L220 239ZM536 700L-22 0H39L576 674L536 700ZM479 0H808L818 52H488L479 0ZM597 648H918L928 700H536L597 648ZM540 359L850 358L860 410H549L540 359ZM568 700L449 0H502L623 700H568Z" />
<glyph unicode="&#xc7;" horiz-adv-x="664" d="M133 350Q143 413 172 467T244 563T343 628T460 653Q504 653 540 643T607 611T661 558L674 631Q632 670 583 689T467 709Q392 709 327 681T208 603T121 489T75 350Q64 280 78 216T128 101T219 21T348 -9Q419 -9 474
11T579 69L591 142Q560 114 523 93T444 59T354 48Q293 48 248 73T174 140T135 237T133 350ZM345 34L251 -100Q267 -92 285 -86T321 -80Q334 -80 344 -86T361 -102T365 -126Q363 -144 351 -157T323 -177T288 -185Q268 -185 255 -178T228 -157L202 -182Q220 -200
239 -210T284 -220Q311 -220 337 -209T381 -177T403 -128Q405 -106 397 -90T375 -65T343 -53Q333 -53 326 -56T309 -63L386 34H345Z" />
<glyph unicode="&#xc8;" horiz-adv-x="517" d="M83 0H421L430 52H92L83 0ZM193 649L530 648L540 700H202L193 649ZM144 359L462 358L471 410H153L144 359ZM173 700L55 0H108L228 700H173ZM258 923L406 769L436 788L309 949L258 923Z" />
<glyph unicode="&#xc9;" horiz-adv-x="517" d="M83 0H421L430 52H92L83 0ZM193 649L530 648L540 700H202L193 649ZM144 359L462 358L471 410H153L144 359ZM173 700L55 0H108L228 700H173ZM531 920L488 949L307 791L334 770L531 920Z" />
<glyph unicode="&#xca;" horiz-adv-x="517" d="M83 0H421L430 52H92L83 0ZM193 649L530 648L540 700H202L193 649ZM144 359L462 358L471 410H153L144 359ZM173 700L55 0H108L228 700H173ZM395 880L499 770L535 795L402 936L223 798L252 770L395 880Z" />
<glyph unicode="&#xcb;" horiz-adv-x="517" d="M83 0H421L430 52H92L83 0ZM193 649L530 648L540 700H202L193 649ZM144 359L462 358L471 410H153L144 359ZM173 700L55 0H108L228 700H173ZM445 828Q443 813 452 802T476 790Q488 788 502 800T518 826Q519 841 510
852T488 864Q473 865 460 853T445 828ZM251 828Q249 813 258 802T282 790Q294 788 308 800T324 826Q325 841 316 852T293 864Q279 865 266 853T251 828Z" />
<glyph unicode="&#xcc;" horiz-adv-x="212" d="M172 700L53 0H106L227 700H172ZM100 923L248 769L279 788L151 949L100 923Z" />
<glyph unicode="&#xcd;" horiz-adv-x="212" d="M172 700L53 0H106L227 700H172ZM373 920L331 949L150 791L175 770L373 920Z" />
<glyph unicode="&#xce;" horiz-adv-x="212" d="M172 700L53 0H106L227 700H172ZM231 880L335 770L371 795L238 936L59 798L88 770L231 880Z" />
<glyph unicode="&#xcf;" horiz-adv-x="212" d="M172 700L53 0H106L227 700H172ZM267 816Q265 801 273 790T297 778Q311 776 325 788T341 814Q342 829 333 840T310 852Q295 853 282 841T267 816ZM96 816Q95 801 103 790T127 778Q140 776 154 788T170 814Q171 829
162 840T139 852Q124 853 111 841T96 816Z" />
<glyph unicode="&#xd0;" horiz-adv-x="659" d="M33 325L325 324L334 373H42L33 325ZM173 700L55 0H108L228 700H173ZM241 0Q343 2 426 47T563 171T633 350Q647 445 619 524T523 650T356 700H203L192 645H350Q414 644 461 620T537 556T577 463T579 350Q568 286
540 233T468 141T368 79T247 55H93L83 0H241Z" />
<glyph unicode="&#xd1;" horiz-adv-x="709" d="M675 700L575 114L163 726L38 0H93L192 585L604 -26L729 700H675ZM310 780L342 756Q346 766 353 777T372 797T401 806Q423 806 438 795T471 772T511 760Q532 759 550 768T583 792T608 823L581 851Q568 832 553 818T518
804Q501 803 488 809T464 825T439 842T406 850Q383 850 364 840T332 814T310 780Z" />
<glyph unicode="&#xd2;" horiz-adv-x="759" d="M132 350Q142 413 171 467T245 564T346 630T466 654Q529 653 576 628T651 560T691 463T694 350Q683 287 654 233T580 136T480 70T360 47Q297 47 250 72T174 140T134 237T132 350ZM75 350Q64 280 78 216T129 101T222
21T354 -9Q429 -9 496 19T616 97T705 212T752 350Q762 420 748 484T697 599T603 679T472 709Q396 709 329 681T209 603T121 488T75 350ZM388 923L536 769L567 788L439 949L388 923Z" />
<glyph unicode="&#xd3;" horiz-adv-x="759" d="M132 350Q142 413 171 467T245 564T346 630T466 654Q529 653 576 628T651 560T691 463T694 350Q683 287 654 233T580 136T480 70T360 47Q297 47 250 72T174 140T134 237T132 350ZM75 350Q64 280 78 216T129 101T222
21T354 -9Q429 -9 496 19T616 97T705 212T752 350Q762 420 748 484T697 599T603 679T472 709Q396 709 329 681T209 603T121 488T75 350ZM634 920L590 949L410 791L437 770L634 920Z" />
<glyph unicode="&#xd4;" horiz-adv-x="759" d="M132 350Q142 413 171 467T245 564T346 630T466 654Q529 653 576 628T651 560T691 463T694 350Q683 287 654 233T580 136T480 70T360 47Q297 47 250 72T174 140T134 237T132 350ZM75 350Q64 280 78 216T129 101T222
21T354 -9Q429 -9 496 19T616 97T705 212T752 350Q762 420 748 484T697 599T603 679T473 709Q396 709 330 681T210 603T121 488T75 350ZM505 880L610 770L646 795L513 936L334 798L363 770L505 880Z" />
<glyph unicode="&#xd5;" horiz-adv-x="759" d="M132 350Q142 413 171 467T245 564T346 630T466 654Q529 653 576 628T651 560T691 463T694 350Q683 287 654 233T580 136T480 70T360 47Q297 47 250 72T174 140T134 237T132 350ZM75 350Q64 280 78 216T129 101T222
21T354 -9Q429 -9 496 19T616 97T705 212T752 350Q762 420 748 484T697 599T603 679T473 709Q396 709 330 681T210 603T121 488T75 350ZM345 802L376 778Q381 788 388 799T406 819T436 828Q457 828 473 817T505 794T546 782Q567 781 585 790T617 814T643 845L616
873Q603 854 588 840T553 826Q535 825 523 831T498 847T473 864T441 872Q422 872 400 862T362 836T345 802Z" />
<glyph unicode="&#xd6;" horiz-adv-x="759" d="M132 350Q142 413 171 467T245 564T346 630T466 654Q529 653 576 628T651 560T691 463T694 350Q683 287 654 233T580 136T480 70T360 47Q297 47 250 72T174 140T134 237T132 350ZM75 350Q64 280 78 216T129 101T222
21T354 -9Q429 -9 496 19T616 97T705 212T752 350Q762 420 748 484T697 599T603 679T472 709Q396 709 329 681T209 603T121 488T75 350ZM557 820Q555 805 564 794T588 782Q602 780 615 792T630 818Q632 833 623 844T600 856Q586 857 572 845T557 820ZM355 820Q354
805 363 794T386 782Q400 780 413 792T429 818Q430 833 421 844T398 856Q384 857 370 845T355 820Z" />
<glyph unicode="&#xd7;" horiz-adv-x="570" d="M84 32L297 221L447 32L487 67L333 254L551 440L521 478L306 289L157 478L117 444L271 256L53 70L84 32Z" />
<glyph unicode="&#xd8;" horiz-adv-x="766" d="M132 350Q142 413 171 467T245 564T346 630T466 654Q529 653 576 628T651 560T691 463T694 350Q683 287 654 233T580 136T480 70T360 47Q297 47 250 72T174 140T134 237T132 350ZM75 350Q64 280 78 216T129 101T222
21T354 -9Q429 -9 496 19T616 97T705 212T752 350Q762 420 748 484T697 599T603 679T473 709Q396 709 330 681T210 603T121 488T75 350ZM776 743L18 -15L52 -42L811 716L776 743Z" />
<glyph unicode="&#xd9;" horiz-adv-x="587" d="M169 700L88 226Q82 179 89 136T119 61T178 10T268 -9Q320 -9 363 8T439 58T493 134T524 226L605 700H551L469 226Q460 174 435 133T368 67T273 43Q220 43 189 68T147 135T142 226L223 700H169ZM296 923L444 769L474
788L347 949L296 923Z" />
<glyph unicode="&#xda;" horiz-adv-x="587" d="M169 700L88 226Q82 179 89 136T119 61T178 10T268 -9Q320 -9 363 8T439 58T493 134T524 226L605 700H551L469 226Q460 174 435 133T368 67T273 43Q220 43 189 68T147 135T142 226L223 700H169ZM553 920L510 949L329
791L356 770L553 920Z" />
<glyph unicode="&#xdb;" horiz-adv-x="587" d="M169 700L88 226Q82 179 89 136T119 61T178 10T268 -9Q320 -9 363 8T439 58T493 134T524 226L605 700H551L469 226Q460 174 435 133T368 67T273 43Q220 43 189 68T147 135T142 226L223 700H169ZM419 880L523 770L559
795L426 936L247 798L276 770L419 880Z" />
<glyph unicode="&#xdc;" horiz-adv-x="587" d="M169 700L88 226Q82 179 89 136T119 61T178 10T268 -9Q320 -9 363 8T439 58T493 134T524 226L605 700H551L469 226Q460 174 435 133T368 67T273 43Q220 43 189 68T147 135T142 226L223 700H169ZM462 808Q460 793
469 782T493 770Q505 768 519 780T535 806Q536 821 527 832T505 844Q490 845 477 833T462 808ZM276 808Q274 793 282 782T306 770Q319 768 333 780T349 806Q350 821 341 832T318 844Q304 845 291 833T276 808Z" />
<glyph unicode="&#xdd;" horiz-adv-x="523" d="M529 920L486 949L305 791L331 770L529 920ZM546 700L290 340L161 700H102L256 289L205 0H259L309 287L609 700H546Z" />
<glyph unicode="&#xde;" horiz-adv-x="521" d="M170 700L51 0H104L225 700H170ZM165 508H311Q360 506 396 487T451 434T461 350Q453 302 423 267T349 213T255 192H113L103 140H249Q315 141 371 167T466 239T515 350Q524 412 501 459T429 532T317 560H175L165 508Z" />
<glyph unicode="&#xdf;" horiz-adv-x="551" d="M320 -11Q362 -11 398 5T461 50T503 117T518 200Q518 239 507 265T479 308T442 337T405 360T377 383T366 413Q366 435 382 452T422 486T470 523T510 575T527 652Q527 696 507 728T451 777T369 794Q308 794 262 767T186
696T148 596L48 -1H101L200 585Q208 635 230 670T285 726T361 746Q392 746 418 735T458 702T473 648Q473 612 457 586T416 539T367 501T326 462T309 413Q309 387 320 370T349 340T386 315T423 287T452 249T464 193Q464 151 446 116T396 59T324 38Q302 38 280 44T238
63T203 90L171 52Q188 33 211 19T262 -3T320 -11Z" />
<glyph unicode="&#xe0;" horiz-adv-x="451" d="M81 135Q86 170 108 194T163 230T235 243Q276 243 307 231T366 198L372 229Q359 242 341 254T297 275T237 284Q188 284 143 266T66 214T28 130Q21 87 37 56T84 8T158 -9Q206 -10 245 10T311 64T348 141L342 172Q332
133 309 102T251 54T174 38Q144 38 121 48T87 81T81 135ZM133 369Q152 382 174 395T224 416T281 423Q312 423 332 411T361 377T368 326L310 0H362L418 326Q424 369 410 401T364 451T286 470Q233 470 191 451T114 411L133 369ZM179 692L328 538L358 557L230 718L179
692Z" />
<glyph unicode="&#xe1;" horiz-adv-x="451" d="M81 135Q86 170 108 194T163 230T235 243Q276 243 307 231T366 198L372 229Q359 242 341 254T297 275T237 284Q188 284 143 266T66 214T28 130Q21 87 37 56T84 8T158 -9Q206 -10 245 10T311 64T348 141L342 172Q332
133 309 102T251 54T174 38Q144 38 121 48T87 81T81 135ZM133 369Q152 382 174 395T224 416T281 423Q312 423 332 411T361 377T368 326L310 0H362L418 326Q424 369 410 401T364 451T286 470Q233 470 191 451T114 411L133 369ZM464 689L420 718L240 560L267 539L464
689Z" />
<glyph unicode="&#xe2;" horiz-adv-x="451" d="M81 135Q86 170 108 194T163 230T235 243Q276 243 307 231T366 198L372 229Q359 242 341 254T297 275T237 284Q188 284 143 266T66 214T28 130Q21 87 37 56T84 8T158 -9Q206 -10 245 10T311 64T348 141L342 172Q332
133 309 102T251 54T174 38Q144 38 121 48T87 81T81 135ZM133 369Q152 382 174 395T224 416T281 423Q312 423 332 411T361 377T368 326L310 0H362L418 326Q424 369 410 401T364 451T286 470Q233 470 191 451T114 411L133 369ZM319 645L424 535L460 560L326 701L148
563L177 535L319 645Z" />
<glyph unicode="&#xe3;" horiz-adv-x="451" d="M81 135Q86 170 108 194T163 230T235 243Q276 243 307 231T366 198L372 229Q359 242 341 254T297 275T237 284Q188 284 143 266T66 214T28 130Q21 87 37 56T84 8T158 -9Q206 -10 245 10T311 64T348 141L342 172Q332
133 309 102T251 54T174 38Q144 38 121 48T87 81T81 135ZM133 369Q152 382 174 395T224 416T281 423Q312 423 332 411T361 377T368 326L310 0H362L418 326Q424 369 410 401T364 451T286 470Q233 470 191 451T114 411L133 369ZM157 575L188 551Q192 561 199 572T218
592T248 601Q269 601 284 590T317 567T357 555Q378 554 396 563T429 587T454 618L428 646Q414 627 399 613T364 599Q347 598 334 604T309 620T284 637T252 645Q229 645 210 635T178 609T157 575Z" />
<glyph unicode="&#xe4;" horiz-adv-x="451" d="M81 135Q86 170 108 194T163 230T235 243Q276 243 307 231T366 198L372 229Q359 242 341 254T297 275T237 284Q188 284 143 266T66 214T28 130Q21 87 37 56T84 8T158 -9Q206 -10 245 10T311 64T348 141L342 172Q332
133 309 102T251 54T174 38Q144 38 121 48T87 81T81 135ZM133 369Q152 382 174 395T224 416T281 423Q312 423 332 411T361 377T368 326L310 0H362L418 326Q424 369 410 401T364 451T286 470Q233 470 191 451T114 411L133 369ZM356 576Q354 561 362 550T385 539Q399
537 412 548T428 574Q430 589 421 600T398 613Q383 614 370 602T356 576ZM177 576Q175 561 183 550T207 539Q220 537 234 548T249 574Q250 589 242 600T219 613Q205 614 192 602T177 576Z" />
<glyph unicode="&#xe5;" horiz-adv-x="451" d="M81 135Q86 170 108 194T163 230T235 243Q276 243 307 231T366 198L372 229Q359 242 341 254T297 275T237 284Q188 284 143 266T66 214T28 130Q21 87 37 56T84 8T158 -9Q206 -10 245 10T311 64T348 141L342 172Q332
133 309 102T251 54T174 38Q144 38 121 48T87 81T81 135ZM133 369Q152 382 174 395T224 416T281 423Q312 423 332 411T361 377T368 326L310 0H362L418 326Q424 369 410 401T364 451T286 470Q233 470 191 451T114 411L133 369ZM216 631Q212 604 222 581T253 545T300
531Q326 530 351 543T393 579T415 629Q419 656 409 679T378 715T331 730Q305 730 280 717T237 681T216 631ZM250 630Q252 648 264 663T294 689T328 698Q353 696 368 676T381 631Q379 613 367 597T337 572T303 563Q278 564 263 584T250 630Z" />
<glyph unicode="&#xe6;" horiz-adv-x="808" d="M173 -10Q247 -10 297 29T368 137H357Q370 64 414 27T532 -10Q595 -10 655 20T755 107L714 134Q682 88 635 64T534 39Q483 39 451 64T407 132T403 229L388 217H779Q782 228 785 239T790 265Q793 326 772 372T710
444T617 470Q566 470 521 450T443 394T391 316L405 326Q417 397 384 433T282 470Q236 470 191 454T108 409L134 369Q156 387 180 399T231 417T281 424Q327 424 350 397T367 315L353 231L378 232Q341 260 306 272T230 284Q172 284 126 263T53 206T23 125Q20 68 58
29T173 -10ZM183 37Q128 37 101 61T76 131Q78 165 99 190T155 229T232 243Q270 243 302 234T357 206L351 225L349 141L355 194Q335 116 291 77T183 37ZM404 238Q416 292 444 334T513 400T605 424Q652 424 682 403T725 345T735 260Q735 254 735 251T732 244L750
262H389L404 238Z" />
<glyph unicode="&#xe7;" horiz-adv-x="467" d="M97 230Q105 283 135 326T210 394T309 421Q341 421 368 412T416 385T448 346L459 411Q435 437 397 453T314 470Q245 469 188 437T93 351T45 230Q35 167 55 112T122 24T235 -9Q283 -9 325 7T398 49L409 113Q391 94
365 77T308 50T241 40Q189 40 154 67T104 137T97 230ZM233 33L138 -101Q154 -93 172 -87T208 -81Q221 -81 232 -87T248 -103T252 -127Q250 -145 238 -158T210 -178T176 -185Q156 -185 143 -178T115 -157L89 -183Q107 -201 126 -211T172 -221Q198 -221 224 -210T268
-178T290 -129Q292 -107 285 -91T263 -66T230 -54Q220 -54 213 -56T197 -63L273 33H233Z" />
<glyph unicode="&#xe8;" horiz-adv-x="493" d="M82 218H469Q470 224 471 230T474 242Q481 302 463 354T406 437T304 470Q248 470 201 446T119 382T67 291Q60 277 57 262T51 231Q44 170 60 116T117 26T222 -9Q275 -10 315 6T386 49T444 106L406 134Q386 109 361
88T304 53T232 40Q181 40 151 67T109 138T104 231L109 249Q117 299 144 338T212 400T300 424Q346 423 374 400T414 340T421 262H89L82 218ZM197 689L347 536L377 555L248 716L197 689Z" />
<glyph unicode="&#xe9;" horiz-adv-x="493" d="M82 218H469Q470 224 471 230T474 242Q481 302 463 354T406 437T304 470Q248 470 201 446T119 382T67 291Q60 277 57 262T51 231Q44 170 60 116T117 26T222 -9Q275 -10 315 6T386 49T444 106L406 134Q386 109 361
88T304 53T232 40Q181 40 151 67T109 138T104 231L109 249Q117 299 144 338T212 400T300 424Q346 423 374 400T414 340T421 262H89L82 218ZM496 687L452 715L273 557L299 537L496 687Z" />
<glyph unicode="&#xea;" horiz-adv-x="493" d="M82 218H469Q470 224 471 230T474 242Q481 302 463 354T406 437T304 470Q248 470 201 446T119 382T67 291Q60 277 57 262T51 231Q44 170 60 116T117 26T222 -9Q275 -10 315 6T386 49T444 106L406 134Q386 109 361
88T304 53T232 40Q181 40 151 67T109 138T104 231L109 249Q117 299 144 338T212 400T300 424Q346 423 374 400T414 340T421 262H89L82 218ZM335 641L440 531L475 556L342 697L164 559L192 531L335 641Z" />
<glyph unicode="&#xeb;" horiz-adv-x="493" d="M82 218H469Q470 224 471 230T474 242Q481 302 463 354T406 437T304 470Q248 470 201 446T119 382T67 291Q60 277 57 262T51 231Q44 170 60 116T117 26T222 -9Q275 -10 315 6T386 49T444 106L406 134Q386 109 361
88T304 53T232 40Q181 40 151 67T109 138T104 231L109 249Q117 299 144 338T212 400T300 424Q346 423 374 400T414 340T421 262H89L82 218ZM381 568Q379 552 388 542T412 531Q425 529 439 540T454 566Q456 581 447 592T424 605Q409 606 396 594T381 568ZM187 568Q185
552 194 542T218 531Q231 529 245 540T260 566Q262 581 253 592T230 605Q215 606 202 594T187 568Z" />
<glyph unicode="&#xec;" horiz-adv-x="225" d="M138 460L61 0H111L190 460H138ZM51 696L199 542L229 561L102 722L51 696Z" />
<glyph unicode="&#xed;" horiz-adv-x="225" d="M138 460L61 0H111L190 460H138ZM359 693L315 722L135 564L161 543L359 693Z" />
<glyph unicode="&#xee;" horiz-adv-x="225" d="M138 460L61 0H111L190 460H138ZM197 647L303 537L338 562L205 703L26 565L55 537L197 647Z" />
<glyph unicode="&#xef;" horiz-adv-x="225" d="M138 460L61 0H111L190 460H138ZM239 586Q238 571 246 560T270 549Q283 547 296 558T312 584Q313 599 304 610T281 623Q267 624 254 612T239 586ZM61 586Q59 571 68 560T91 549Q104 547 118 558T133 584Q135 599
126 610T103 623Q88 624 75 612T61 586Z" />
<glyph unicode="&#xf0;" horiz-adv-x="560" d="M253 -10Q311 -10 358 13T441 75T495 164T514 268Q514 301 507 334T484 404T440 486T370 587T271 715L238 679Q280 629 310 590T364 517T404 449T439 373L464 374Q428 412 388 430T298 449Q253 449 209 430T129 376T72
296T51 196Q51 134 75 87T145 15T253 -10ZM253 40Q209 40 175 59T123 113T104 196Q104 238 120 276T166 344T232 391T307 408Q354 408 388 389T440 335T459 254Q459 214 443 176T399 107T334 59T253 40ZM228 510L501 618L488 650L215 542L228 510Z" />
<glyph unicode="&#xf1;" horiz-adv-x="489" d="M180 460H128L48 0H100L180 460ZM386 296L336 0H386L438 302Q444 348 435 386T398 447T321 470Q271 470 230 444T162 374T124 281H148Q157 317 178 349T232 401T304 421Q342 420 360 403T384 358T386 296ZM169 563L201
539Q205 549 212 560T230 580T261 589Q282 589 297 578T330 555T370 543Q391 542 409 551T441 575T468 606L441 634Q427 615 412 601T378 587Q360 586 347 592T323 608T298 625T265 633Q242 633 223 623T191 597T169 563Z" />
<glyph unicode="&#xf2;" horiz-adv-x="533" d="M49 230Q40 167 60 112T127 24T240 -9Q308 -9 365 23T460 109T509 230Q518 294 498 348T431 436T318 470Q250 470 193 438T97 351T49 230ZM102 230Q110 283 140 326T215 395T313 421Q365 420 400 393T449 323T457
230Q449 178 419 135T343 65T245 40Q193 40 158 66T109 137T102 230ZM212 696L361 542L391 561L263 722L212 696Z" />
<glyph unicode="&#xf3;" horiz-adv-x="533" d="M49 230Q40 167 60 112T127 24T240 -9Q308 -9 365 23T460 109T509 230Q518 294 498 348T431 436T318 470Q250 470 193 438T97 351T49 230ZM102 230Q110 283 140 326T215 395T313 421Q365 420 400 393T449 323T457
230Q449 178 419 135T343 65T245 40Q193 40 158 66T109 137T102 230ZM505 693L462 722L281 564L308 543L505 693Z" />
<glyph unicode="&#xf4;" horiz-adv-x="533" d="M49 230Q40 167 60 112T127 24T240 -9Q308 -9 365 23T460 109T509 230Q518 294 498 348T431 436T318 470Q250 470 193 438T97 351T49 230ZM102 230Q110 283 140 326T215 395T313 421Q365 420 400 393T449 323T457
230Q449 178 419 135T343 65T245 40Q193 40 158 66T109 137T102 230ZM354 661L459 551L495 576L362 717L183 579L212 551L354 661Z" />
<glyph unicode="&#xf5;" horiz-adv-x="533" d="M49 230Q40 167 60 112T127 24T240 -9Q308 -9 365 23T460 109T509 230Q518 294 498 348T431 436T318 470Q250 470 193 438T97 351T49 230ZM102 230Q110 283 140 326T215 395T313 421Q365 420 400 393T449 323T457
230Q449 178 419 135T343 65T245 40Q193 40 158 66T109 137T102 230ZM191 563L222 539Q226 549 233 560T252 579T282 589Q303 589 318 578T351 555T391 543Q413 542 431 551T463 575T489 606L462 634Q449 615 434 601T399 587Q381 586 368 592T344 608T319 625T286
633Q269 633 246 623T206 597T191 563Z" />
<glyph unicode="&#xf6;" horiz-adv-x="533" d="M49 230Q40 167 60 112T127 24T240 -9Q308 -9 365 23T460 109T509 230Q518 294 498 348T431 436T318 470Q250 470 193 438T97 351T49 230ZM102 230Q110 283 140 326T215 395T313 421Q365 420 400 393T449 323T457
230Q449 178 419 135T343 65T245 40Q193 40 158 66T109 137T102 230ZM403 594Q401 579 409 568T433 557Q446 555 459 566T475 592Q476 607 467 618T445 631Q430 632 417 620T403 594ZM209 594Q207 579 215 568T239 557Q252 555 265 566T281 592Q282 607 273 618T251
631Q236 632 223 620T209 594Z" />
<glyph unicode="&#xf7;" horiz-adv-x="604" d="M315 451Q313 441 316 433T327 419T345 414Q354 413 363 418T379 432T387 449Q388 459 385 468T374 482T357 488Q348 488 338 483T322 470T315 451ZM247 55Q247 45 250 37T261 23T278 18Q286 17 296 22T312 36T320
53Q321 63 318 72T307 86T290 92Q280 92 271 87T256 74T247 55ZM70 230L557 229L566 281H80L70 230Z" />
<glyph unicode="&#xf8;" horiz-adv-x="529" d="M49 230Q40 167 60 112T127 24T240 -9Q308 -9 365 23T460 109T509 230Q518 294 498 348T431 436T318 470Q250 470 193 438T97 351T49 230ZM102 230Q110 283 140 326T215 395T313 421Q365 420 400 393T449 323T457
230Q449 178 419 135T343 65T245 40Q193 40 158 66T109 137T102 230ZM491 496L23 -25L53 -40L520 482L491 496Z" />
<glyph unicode="&#xf9;" horiz-adv-x="489" d="M335 0H386L466 460H414L335 0ZM129 168L179 460H129L77 162Q71 115 80 76T116 14T193 -9Q244 -9 285 17T353 86T391 179H366Q358 143 336 111T282 59T210 40Q173 40 154 57T130 104T129 168ZM206 700L354 546L386
565L258 726L206 700Z" />
<glyph unicode="&#xfa;" horiz-adv-x="489" d="M335 0H386L466 460H414L335 0ZM129 168L179 460H129L77 162Q71 115 80 76T116 14T193 -9Q244 -9 285 17T353 86T391 179H366Q358 143 336 111T282 59T210 40Q173 40 154 57T130 104T129 168ZM468 697L425 726L245
568L271 547L468 697Z" />
<glyph unicode="&#xfb;" horiz-adv-x="489" d="M335 0H386L466 460H414L335 0ZM129 168L179 460H129L77 162Q71 115 80 76T116 14T193 -9Q244 -9 285 17T353 86T391 179H366Q358 143 336 111T282 59T210 40Q173 40 154 57T130 104T129 168ZM331 657L436 547L472
572L338 713L160 575L189 547L331 657Z" />
<glyph unicode="&#xfc;" horiz-adv-x="489" d="M335 0H386L466 460H414L335 0ZM129 168L179 460H129L77 162Q71 115 80 76T116 14T193 -9Q244 -9 285 17T353 86T391 179H366Q358 143 336 111T282 59T210 40Q173 40 154 57T130 104T129 168ZM372 588Q369 573 377
562T401 551Q415 549 429 560T445 586Q446 601 437 612T414 625Q399 626 386 614T372 588ZM193 588Q191 573 199 562T223 551Q236 549 250 560T266 586Q267 601 258 612T235 625Q221 626 208 614T193 588Z" />
<glyph unicode="&#xfd;" horiz-adv-x="420" d="M471 460H412L188 71L212 68L116 460H56L167 49L4 -219H63L471 460ZM439 693L395 722L216 564L242 543L439 693Z" />
<glyph unicode="&#xfe;" horiz-adv-x="541" d="M59 -219L229 780H178L6 -220L59 -219ZM516 230Q525 293 507 348T446 437T339 470Q293 469 254 450T185 396T136 319T111 230Q105 187 110 145T134 67T183 11T262 -10Q326 -10 380 21T470 107T516 230ZM466 230Q457
176 428 133T355 65T260 40Q225 40 199 56T158 100T136 161T135 230Q140 267 157 301T201 362T260 405T328 421Q379 421 412 395T458 325T466 230Z" />
<glyph unicode="&#xff;" horiz-adv-x="420" d="M471 460H412L188 71L212 68L116 460H56L167 49L4 -219H63L471 460ZM335 576Q333 561 342 550T365 539Q379 537 393 548T408 574Q410 589 401 600T378 613Q363 614 350 602T335 576ZM157 576Q155 561 163 550T187
539Q200 537 214 548T230 574Q231 589 222 600T199 613Q185 614 172 602T157 576Z" />
<glyph unicode="&#x2013;" horiz-adv-x="718" d="M79 227L662 226L671 275H88L79 227Z" />
<glyph unicode="&#x2014;" horiz-adv-x="863" d="M79 227L808 226L817 275H88L79 227Z" />
<glyph unicode="&#x2018;" horiz-adv-x="247" d="M178 471L289 699H251L115 471H178Z" />
<glyph unicode="&#x2019;" horiz-adv-x="254" d="M223 700L113 471H150L286 700H223Z" />
<glyph unicode="&#x201a;" horiz-adv-x="254" d="M115 80L5 -149H42L178 80H115Z" />
<glyph unicode="&#x201c;" horiz-adv-x="425" d="M186 471L296 699H259L123 471H186ZM357 471L467 699H429L293 471H357Z" />
<glyph unicode="&#x201d;" horiz-adv-x="425" d="M215 700L105 471H142L278 700H215ZM386 700L275 471H313L449 700H386Z" />
<glyph unicode="&#x201e;" horiz-adv-x="425" d="M113 80L2 -149H39L175 80H113ZM283 80L173 -149H210L347 80H283Z" />
<glyph unicode="&#x2022;" horiz-adv-x="291" d="M143 400Q143 390 148 382T161 368T180 363Q190 363 198 368T211 381T216 400Q216 411 211 419T198 433T180 438Q170 438 162 433T148 420T143 400Z" />
<glyph unicode="&#x2039;" horiz-adv-x="329" d="M112 257L314 459L286 490L55 257L208 20L245 49L112 257Z" />
<glyph unicode="&#x203a;" horiz-adv-x="339" d="M261 254L59 52L87 21L318 253L165 490L128 461L261 254Z" />
</font>
</defs>
</svg>
